<?xml version="1.0" encoding="iso-8859-1"?>
<!-- Generator: Adobe Illustrator 17.0.1, SVG Export Plug-In . SVG Version: 6.00 Build 0)  -->
<!DOCTYPE svg PUBLIC "-//W3C//DTD SVG 1.1//EN" "http://www.w3.org/Graphics/SVG/1.1/DTD/svg11.dtd">
<svg version="1.1" id="Layer_1" xmlns="http://www.w3.org/2000/svg" xmlns:xlink="http://www.w3.org/1999/xlink" x="0px" y="0px"
	 width="96px" height="96px" viewBox="0 0 96 96" style="enable-background:new 0 0 96 96;" xml:space="preserve">
<g id="icon-l-pause_1_">
	<g>
		<circle style="opacity:0.15;fill:#FFFFFF;" cx="48" cy="48.001" r="44"/>
		<path style="fill:#FFFFFF;" d="M39.398,67.047h-6.797c-1.986,0-3.602-1.616-3.602-3.603V32.648c0-1.986,1.616-3.602,3.602-3.602
			h6.797c1.986,0,3.602,1.616,3.602,3.602v30.796C43,65.431,41.384,67.047,39.398,67.047z M32.602,31.046
			c-0.883,0-1.602,0.718-1.602,1.602v30.796c0,0.884,0.718,1.603,1.602,1.603h6.797c0.883,0,1.602-0.719,1.602-1.603V32.648
			c0-0.883-0.718-1.602-1.602-1.602H32.602z"/>
		<path style="fill:#FFFFFF;" d="M63.398,67.047h-6.797c-1.986,0-3.602-1.616-3.602-3.603V32.648c0-1.986,1.615-3.602,3.602-3.602
			h6.797c1.986,0,3.602,1.616,3.602,3.602v30.796C67,65.431,65.385,67.047,63.398,67.047z M56.602,31.046
			c-0.883,0-1.602,0.718-1.602,1.602v30.796c0,0.884,0.719,1.603,1.602,1.603h6.797c0.883,0,1.602-0.719,1.602-1.603V32.648
			c0-0.883-0.719-1.602-1.602-1.602H56.602z"/>
	</g>
	<rect id="icon-l-pause_3_" style="opacity:0;fill:#FFFFFF;" width="96" height="96"/>
</g>
</svg>
