<?xml version="1.0" encoding="iso-8859-1"?>
<!-- Generator: Adobe Illustrator 17.0.1, SVG Export Plug-In . SVG Version: 6.00 Build 0)  -->
<!DOCTYPE svg PUBLIC "-//W3C//DTD SVG 1.1//EN" "http://www.w3.org/Graphics/SVG/1.1/DTD/svg11.dtd">
<svg version="1.1" id="Layer_1" xmlns="http://www.w3.org/2000/svg" xmlns:xlink="http://www.w3.org/1999/xlink" x="0px" y="0px"
	 width="64px" height="64px" viewBox="0 0 64 64" style="enable-background:new 0 0 64 64;" xml:space="preserve">
<g id="icon-m-pause">
	<rect id="icon-m-pause_1_" style="opacity:0;fill:#FFFFFF;" width="64" height="64"/>
	<g>
		<circle style="opacity:0.2;fill:#FFFFFF;" cx="32" cy="32" r="24"/>
		<g>
			<path style="fill:#FFFFFF;" d="M29.715,38.79c0,1.65-1.35,3-3,3h-0.63c-1.65,0-3-1.35-3-3V24.144c0-1.65,1.35-3,3-3h0.63
				c1.65,0,3,1.35,3,3V38.79z"/>
			<path style="fill:#FFFFFF;" d="M40.916,38.79c0,1.65-1.35,3-3,3h-0.631c-1.65,0-3-1.35-3-3V24.144c0-1.65,1.35-3,3-3h0.631
				c1.65,0,3,1.35,3,3V38.79z"/>
		</g>
	</g>
</g>
</svg>
