<?xml version="1.0" encoding="iso-8859-1"?>
<!-- Generator: Adobe Illustrator 17.0.1, SVG Export Plug-In . SVG Version: 6.00 Build 0)  -->
<!DOCTYPE svg PUBLIC "-//W3C//DTD SVG 1.1//EN" "http://www.w3.org/Graphics/SVG/1.1/DTD/svg11.dtd">
<svg version="1.1" id="Layer_1" xmlns="http://www.w3.org/2000/svg" xmlns:xlink="http://www.w3.org/1999/xlink" x="0px" y="0px"
	 width="96px" height="96px" viewBox="0 0 96 96" style="enable-background:new 0 0 96 96;" xml:space="preserve">
<g id="icon-l-play_2_">
	<rect id="icon-l-play_3_" style="opacity:0;fill:#FFFFFF;" width="96" height="96"/>
	<g>
		<circle style="opacity:0.15;fill:#FFFFFF;" cx="48" cy="48.001" r="44"/>
		<path style="fill:#FFFFFF;" d="M40.211,66.561c-1.193,0-2.585-0.857-2.585-3.273V32.713c0-2.416,1.393-3.273,2.585-3.273
			c0.72,0,1.469,0.284,2.228,0.843l19.709,14.539c1.103,0.813,1.734,1.972,1.734,3.18c0,1.207-0.633,2.366-1.734,3.179
			L42.438,65.718C41.68,66.277,40.93,66.561,40.211,66.561z M40.21,31.439c-0.543,0-0.585,0.975-0.585,1.273v30.574
			c0,0.299,0.042,1.273,0.585,1.273c0.271,0,0.65-0.165,1.04-0.452L60.96,49.57c0.595-0.438,0.922-0.996,0.922-1.569
			c0-0.574-0.327-1.132-0.922-1.57L41.251,31.892C40.861,31.604,40.482,31.439,40.21,31.439z"/>
	</g>
</g>
</svg>
