<?xml version="1.0" encoding="UTF-8" standalone="no"?>
<!-- Created with Inkscape (http://www.inkscape.org/) -->

<svg
   xmlns:dc="http://purl.org/dc/elements/1.1/"
   xmlns:cc="http://creativecommons.org/ns#"
   xmlns:rdf="http://www.w3.org/1999/02/22-rdf-syntax-ns#"
   xmlns:svg="http://www.w3.org/2000/svg"
   xmlns="http://www.w3.org/2000/svg"
   xmlns:xlink="http://www.w3.org/1999/xlink"
   version="1.1"
   width="744.09448"
   height="1052.3622"
   id="svg2986">
  <title
     id="title3044">eighth note</title>
  <defs
     id="defs2988">
    <linearGradient
       id="linearGradient3013">
      <stop
         id="stop3015"
         style="stop-color:#000000;stop-opacity:0.8263889"
         offset="0" />
      <stop
         id="stop3017"
         style="stop-color:#000000;stop-opacity:1"
         offset="1" />
    </linearGradient>
    <linearGradient
       x1="382.33768"
       y1="489.13965"
       x2="490.53049"
       y2="333.89423"
       id="linearGradient3019"
       xlink:href="#linearGradient3013"
       gradientUnits="userSpaceOnUse"
       gradientTransform="matrix(2.0778635,0,0,2.0778635,-518.08353,-281.80071)" />
  </defs>
  <metadata
     id="metadata2991">
    <rdf:RDF>
      <cc:Work
         rdf:about="">
        <dc:format>image/svg+xml</dc:format>
        <dc:type
           rdf:resource="http://purl.org/dc/dcmitype/StillImage" />
        <dc:title>eighth note</dc:title>
        <cc:license
           rdf:resource="http://creativecommons.org/licenses/publicdomain/" />
        <dc:creator>
          <cc:Agent>
            <dc:title>Jaschon</dc:title>
          </cc:Agent>
        </dc:creator>
      </cc:Work>
      <cc:License
         rdf:about="http://creativecommons.org/licenses/publicdomain/">
        <cc:permits
           rdf:resource="http://creativecommons.org/ns#Reproduction" />
        <cc:permits
           rdf:resource="http://creativecommons.org/ns#Distribution" />
        <cc:permits
           rdf:resource="http://creativecommons.org/ns#DerivativeWorks" />
      </cc:License>
    </rdf:RDF>
  </metadata>
  <g
     id="layer1">
    <path
       d="m 418.38768,231.34258 c 14.31979,21.13649 21.68218,46.72843 40.13541,64.98241 21.13477,27.83462 48.14623,50.89072 69.08885,79.05807 15.15655,19.68077 31.77102,40.59925 36.07436,65.35699 11.58719,31.7567 6.55595,67.40891 -5.80561,98.49818 -13.94701,16.76487 -23.48233,-4.93192 -19.58905,-18.3652 0.59324,-18.53529 0.32293,-37.0207 -6.78594,-54.52813 -6.30471,-26.25474 -17.83413,-51.10108 -37.13626,-70.36568 -16.77226,-14.70084 -35.81289,-47.09468 -61.38161,-35.94125 -16.88486,10.63667 -9.52893,32.13945 -11.34625,48.7119 -1.00349,101.95104 -1.0707,203.94409 -2.70053,305.8661 -1.24608,42.80949 -38.24711,71.52942 -72.88028,89.90822 -30.85392,18.56748 -67.79454,28.96551 -103.60859,20.69063 -33.3036,-3.41726 -67.75581,-27.72972 -68.4537,-63.70404 -2.22037,-41.7108 27.90419,-80.5523 64.98849,-97.02378 36.40406,-20.74876 82.42945,-25.24594 121.63079,-10.33095 19.1562,6.05494 24.48328,-11.72109 26.87355,-28.81947 2.21226,-129.76981 3.98291,-259.54448 4.43537,-389.3337 0.36593,-12.97349 21.49606,-16.13939 26.461,-4.6603 z"
       id="path3"
       style="fill:url(#linearGradient3019);fill-opacity:1;fill-rule:evenodd;stroke:#000000;stroke-width:5.92410803;stroke-linecap:round;stroke-linejoin:round" />
  </g>
</svg>
